<svg width="66" height="26" viewBox="0 0 66 26" fill="none" xmlns="http://www.w3.org/2000/svg">
<path d="M13.696 1.64C13.6073 1.47667 13.479 1.353 13.311 1.269C13.1477 1.18033 12.954 1.136 12.73 1.136C12.3427 1.136 12.0323 1.26433 11.799 1.521C11.5657 1.773 11.449 2.11133 11.449 2.536C11.449 2.98867 11.5703 3.34333 11.813 3.6C12.0603 3.852 12.3987 3.978 12.828 3.978C13.122 3.978 13.3693 3.90333 13.57 3.754C13.7753 3.60467 13.9247 3.39 14.018 3.11H12.499V2.228H15.103V3.341C15.0143 3.63967 14.8627 3.91733 14.648 4.174C14.438 4.43067 14.1697 4.63833 13.843 4.797C13.5163 4.95567 13.1477 5.035 12.737 5.035C12.2517 5.035 11.8177 4.93 11.435 4.72C11.057 4.50533 10.7607 4.209 10.546 3.831C10.336 3.453 10.231 3.02133 10.231 2.536C10.231 2.05067 10.336 1.619 10.546 1.241C10.7607 0.858332 11.057 0.561999 11.435 0.351999C11.813 0.137332 12.2447 0.0299988 12.73 0.0299988C13.318 0.0299988 13.8127 0.172332 14.214 0.456999C14.62 0.741666 14.8883 1.136 15.019 1.64H13.696Z" fill="white"/>
<path d="M22.325 4.132H20.491L20.197 5H18.944L20.722 0.0859989H22.108L23.886 5H22.619L22.325 4.132ZM22.017 3.208L21.408 1.409L20.806 3.208H22.017Z" fill="white"/>
<path d="M29.7682 0.0859989C30.2862 0.0859989 30.7388 0.188665 31.1262 0.393999C31.5135 0.599332 31.8122 0.888666 32.0222 1.262C32.2368 1.63067 32.3442 2.05767 32.3442 2.543C32.3442 3.02367 32.2368 3.45067 32.0222 3.824C31.8122 4.19733 31.5112 4.48667 31.1192 4.692C30.7318 4.89733 30.2815 5 29.7682 5H27.9272V0.0859989H29.7682ZM29.6912 3.964C30.1438 3.964 30.4962 3.84033 30.7482 3.593C31.0002 3.34567 31.1262 2.99567 31.1262 2.543C31.1262 2.09033 31.0002 1.738 30.7482 1.486C30.4962 1.234 30.1438 1.108 29.6912 1.108H29.1242V3.964H29.6912Z" fill="white"/>
<path d="M39.7751 1.64C39.6864 1.47667 39.5581 1.353 39.3901 1.269C39.2268 1.18033 39.0331 1.136 38.8091 1.136C38.4218 1.136 38.1114 1.26433 37.8781 1.521C37.6448 1.773 37.5281 2.11133 37.5281 2.536C37.5281 2.98867 37.6494 3.34333 37.8921 3.6C38.1394 3.852 38.4778 3.978 38.9071 3.978C39.2011 3.978 39.4484 3.90333 39.6491 3.754C39.8544 3.60467 40.0038 3.39 40.0971 3.11H38.5781V2.228H41.1821V3.341C41.0934 3.63967 40.9418 3.91733 40.7271 4.174C40.5171 4.43067 40.2488 4.63833 39.9221 4.797C39.5954 4.95567 39.2268 5.035 38.8161 5.035C38.3308 5.035 37.8968 4.93 37.5141 4.72C37.1361 4.50533 36.8398 4.209 36.6251 3.831C36.4151 3.453 36.3101 3.02133 36.3101 2.536C36.3101 2.05067 36.4151 1.619 36.6251 1.241C36.8398 0.858332 37.1361 0.561999 37.5141 0.351999C37.8921 0.137332 38.3238 0.0299988 38.8091 0.0299988C39.3971 0.0299988 39.8918 0.172332 40.2931 0.456999C40.6991 0.741666 40.9674 1.136 41.0981 1.64H39.7751Z" fill="white"/>
<path d="M46.5421 1.045V2.039H48.1451V2.963H46.5421V4.041H48.3551V5H45.3451V0.0859989H48.3551V1.045H46.5421Z" fill="white"/>
<path d="M56.1672 0.0859989V1.045H54.8652V5H53.6682V1.045H52.3662V0.0859989H56.1672Z" fill="white"/>
<path d="M12.144 13.96C11.8527 13.4233 11.431 13.017 10.879 12.741C10.3423 12.4497 9.706 12.304 8.97 12.304C7.69734 12.304 6.67767 12.7257 5.911 13.569C5.14434 14.397 4.761 15.5087 4.761 16.904C4.761 18.3913 5.15967 19.5567 5.957 20.4C6.76967 21.228 7.88134 21.642 9.292 21.642C10.258 21.642 11.0707 21.3967 11.73 20.906C12.4047 20.4153 12.8953 19.71 13.202 18.79H8.211V15.892H16.767V19.549C16.4757 20.5303 15.9773 21.4427 15.272 22.286C14.582 23.1293 13.7003 23.8117 12.627 24.333C11.5537 24.8543 10.3423 25.115 8.993 25.115C7.39834 25.115 5.97234 24.77 4.715 24.08C3.473 23.3747 2.49934 22.401 1.794 21.159C1.104 19.917 0.759003 18.4987 0.759003 16.904C0.759003 15.3093 1.104 13.891 1.794 12.649C2.49934 11.3917 3.473 10.418 4.715 9.728C5.957 9.02267 7.37534 8.67 8.97 8.67C10.902 8.67 12.5273 9.13766 13.846 10.073C15.18 11.0083 16.0617 12.304 16.491 13.96H12.144Z" fill="#FF914D"/>
<path d="M22.8785 21.964H28.0305V25H18.9455V8.854H22.8785V21.964Z" fill="#FF914D"/>
<path d="M39.9575 22.148H33.9315L32.9655 25H28.8485L34.6905 8.854H39.2445L45.0865 25H40.9235L39.9575 22.148ZM38.9455 19.112L36.9445 13.201L34.9665 19.112H38.9455Z" fill="#FF914D"/>
<path d="M65.1495 8.854V25H61.2165V15.317L57.6055 25H54.4315L50.7975 15.294V25H46.8645V8.854H51.5105L56.0415 20.032L60.5265 8.854H65.1495Z" fill="#FF914D"/>
</svg>
