<svg width="65" height="26" viewBox="0 0 65 26" fill="none" xmlns="http://www.w3.org/2000/svg">
<path d="M12.937 1.61C12.8483 1.44667 12.72 1.323 12.552 1.239C12.3887 1.15033 12.195 1.106 11.971 1.106C11.5837 1.106 11.2733 1.23433 11.04 1.491C10.8067 1.743 10.69 2.08133 10.69 2.506C10.69 2.95867 10.8113 3.31333 11.054 3.57C11.3013 3.822 11.6397 3.948 12.069 3.948C12.363 3.948 12.6103 3.87333 12.811 3.724C13.0163 3.57467 13.1657 3.36 13.259 3.08H11.74V2.198H14.344V3.311C14.2553 3.60967 14.1037 3.88733 13.889 4.144C13.679 4.40067 13.4107 4.60833 13.084 4.767C12.7573 4.92567 12.3887 5.005 11.978 5.005C11.4927 5.005 11.0587 4.9 10.676 4.69C10.298 4.47533 10.0017 4.179 9.787 3.801C9.577 3.423 9.472 2.99133 9.472 2.506C9.472 2.02067 9.577 1.589 9.787 1.211C10.0017 0.828333 10.298 0.532 10.676 0.322C11.054 0.107333 11.4857 0 11.971 0C12.559 0 13.0537 0.142333 13.455 0.427C13.861 0.711667 14.1293 1.106 14.26 1.61H12.937Z" fill="#1C1C1C"/>
<path d="M21.566 4.102H19.732L19.438 4.97H18.185L19.963 0.0560001H21.349L23.127 4.97H21.86L21.566 4.102ZM21.258 3.178L20.649 1.379L20.047 3.178H21.258Z" fill="#1C1C1C"/>
<path d="M29.0092 0.0560001C29.5272 0.0560001 29.9798 0.158667 30.3672 0.364C30.7545 0.569333 31.0532 0.858667 31.2632 1.232C31.4778 1.60067 31.5852 2.02767 31.5852 2.513C31.5852 2.99367 31.4778 3.42067 31.2632 3.794C31.0532 4.16733 30.7522 4.45667 30.3602 4.662C29.9728 4.86733 29.5225 4.97 29.0092 4.97H27.1682V0.0560001H29.0092ZM28.9322 3.934C29.3848 3.934 29.7372 3.81033 29.9892 3.563C30.2412 3.31567 30.3672 2.96567 30.3672 2.513C30.3672 2.06033 30.2412 1.708 29.9892 1.456C29.7372 1.204 29.3848 1.078 28.9322 1.078H28.3652V3.934H28.9322Z" fill="#1C1C1C"/>
<path d="M39.0161 1.61C38.9274 1.44667 38.7991 1.323 38.6311 1.239C38.4678 1.15033 38.2741 1.106 38.0501 1.106C37.6628 1.106 37.3524 1.23433 37.1191 1.491C36.8858 1.743 36.7691 2.08133 36.7691 2.506C36.7691 2.95867 36.8904 3.31333 37.1331 3.57C37.3804 3.822 37.7188 3.948 38.1481 3.948C38.4421 3.948 38.6894 3.87333 38.8901 3.724C39.0954 3.57467 39.2448 3.36 39.3381 3.08H37.8191V2.198H40.4231V3.311C40.3344 3.60967 40.1828 3.88733 39.9681 4.144C39.7581 4.40067 39.4898 4.60833 39.1631 4.767C38.8364 4.92567 38.4678 5.005 38.0571 5.005C37.5718 5.005 37.1378 4.9 36.7551 4.69C36.3771 4.47533 36.0808 4.179 35.8661 3.801C35.6561 3.423 35.5511 2.99133 35.5511 2.506C35.5511 2.02067 35.6561 1.589 35.8661 1.211C36.0808 0.828333 36.3771 0.532 36.7551 0.322C37.1331 0.107333 37.5648 0 38.0501 0C38.6381 0 39.1328 0.142333 39.5341 0.427C39.9401 0.711667 40.2084 1.106 40.3391 1.61H39.0161Z" fill="#1C1C1C"/>
<path d="M45.7831 1.015V2.009H47.3861V2.933H45.7831V4.011H47.5961V4.97H44.5861V0.0560001H47.5961V1.015H45.7831Z" fill="#1C1C1C"/>
<path d="M55.4082 0.0560001V1.015H54.1062V4.97H52.9092V1.015H51.6072V0.0560001H55.4082Z" fill="#1C1C1C"/>
<path d="M11.385 13.93C11.0937 13.3933 10.672 12.987 10.12 12.711C9.58333 12.4197 8.947 12.274 8.211 12.274C6.93833 12.274 5.91867 12.6957 5.152 13.539C4.38533 14.367 4.002 15.4787 4.002 16.874C4.002 18.3613 4.40067 19.5267 5.198 20.37C6.01067 21.198 7.12233 21.612 8.533 21.612C9.499 21.612 10.3117 21.3667 10.971 20.876C11.6457 20.3853 12.1363 19.68 12.443 18.76H7.452V15.862H16.008V19.519C15.7167 20.5003 15.2183 21.4127 14.513 22.256C13.823 23.0993 12.9413 23.7817 11.868 24.303C10.7947 24.8243 9.58333 25.085 8.234 25.085C6.63933 25.085 5.21333 24.74 3.956 24.05C2.714 23.3447 1.74033 22.371 1.035 21.129C0.345 19.887 0 18.4687 0 16.874C0 15.2793 0.345 13.861 1.035 12.619C1.74033 11.3617 2.714 10.388 3.956 9.698C5.198 8.99267 6.61633 8.64 8.211 8.64C10.143 8.64 11.7683 9.10767 13.087 10.043C14.421 10.9783 15.3027 12.274 15.732 13.93H11.385Z" fill="#FF914D"/>
<path d="M22.1195 21.934H27.2715V24.97H18.1865V8.824H22.1195V21.934Z" fill="#FF914D"/>
<path d="M39.1985 22.118H33.1725L32.2065 24.97H28.0895L33.9315 8.824H38.4855L44.3275 24.97H40.1645L39.1985 22.118ZM38.1865 19.082L36.1855 13.171L34.2075 19.082H38.1865Z" fill="#FF914D"/>
<path d="M64.3905 8.824V24.97H60.4575V15.287L56.8465 24.97H53.6725L50.0385 15.264V24.97H46.1055V8.824H50.7515L55.2825 20.002L59.7675 8.824H64.3905Z" fill="#FF914D"/>
</svg>
